<?xml version="1.0" standalone="no"?><!DOCTYPE svg PUBLIC "-//W3C//DTD SVG 1.1//EN" "http://www.w3.org/Graphics/SVG/1.1/DTD/svg11.dtd"><svg t="1701681664561" class="icon" viewBox="0 0 1024 1024" version="1.1" xmlns="http://www.w3.org/2000/svg" p-id="4053" xmlns:xlink="http://www.w3.org/1999/xlink" width="200" height="200"><path d="M537.92 926.272c-71.104 0-136.32-22.208-178.368-55.36-21.312 5.952-48.64 15.552-65.792 27.392-14.72 10.112-12.928 20.48-10.24 24.64 11.648 18.368 200 11.712 254.4 6.016v-2.688z" fill="#FAAD08" p-id="4054"></path><path d="M525.056 926.272c71.104 0 136.32-22.208 178.368-55.36 21.312 5.952 48.64 15.552 65.792 27.392 14.72 10.112 12.928 20.48 10.24 24.64-11.648 18.368-200 11.712-254.4 6.016v-2.688z" fill="#FAAD08" p-id="4055"></path><path d="M525.504 498.24a1007.616 1007.616 0 0 0 242.56-31.36c7.552-2.048 11.52-5.632 11.52-5.632 0.064-1.024 0.512-18.56 0.512-27.648 0-152.32-73.728-305.472-255.04-305.472S270.08 281.216 270.08 433.6c0 9.088 0.448 26.624 0.512 27.648 0 0 3.264 3.392 9.344 4.992 29.312 8 124.8 31.168 244.8 32h0.832zM847.488 627.008a1301.12 1301.12 0 0 0-26.944-76.032s-5.76-0.64-8.64 0.128c-89.28 25.92-197.504 42.432-280 41.408h-0.832c-82.048 1.024-189.504-15.36-278.528-40.96-3.392-0.96-10.112-0.576-10.112-0.576-9.984 25.92-19.84 52.928-27.008 76.032-34.304 110.272-23.168 155.968-14.72 156.928 18.176 2.24 70.72-83.008 70.72-83.008 0 86.592 78.336 219.52 257.664 220.8h4.8c179.328-1.28 257.6-134.208 257.6-220.8 0 0 52.608 85.248 70.784 83.072 8.448-1.024 19.584-46.72-14.72-156.992" fill="#000000" p-id="4056"></path><path d="M469.888 358.464c-24.768 1.088-45.888-26.688-47.232-62.08-1.28-35.328 17.6-64.832 42.368-65.92 24.704-1.152 45.824 26.624 47.168 62.016 1.344 35.328-17.6 64.896-42.304 65.984m183.232-62.08c-1.28 35.392-22.464 63.168-47.232 62.08-24.704-1.088-43.648-30.656-42.304-65.984 1.344-35.392 22.464-63.168 47.168-62.08 24.768 1.152 43.712 30.72 42.368 66.048" fill="#FFFFFF" p-id="4057"></path><path d="M691.2 404.288c-6.528-15.616-71.936-32.96-152.896-32.96h-0.832c-80.96 0-146.368 17.344-152.832 32.96a5.504 5.504 0 0 0 0.448 5.248c5.44 8.64 78.08 51.456 152.32 51.456h0.896c74.368 0 146.944-42.816 152.448-51.456a5.632 5.632 0 0 0 0.384-5.248" fill="#FAAD08" p-id="4058"></path><path d="M499.328 310.528c1.152 17.6-6.528 33.28-17.088 34.944-10.496 1.728-19.968-11.136-21.12-28.8-1.088-17.536 6.528-33.216 17.088-34.88 10.56-1.728 20.032 11.136 21.12 28.8m64.832 8.768a41.6 41.6 0 0 1 49.28-19.84c8.32 2.304 12.224 5.696 13.056 7.04 1.216 1.92 1.536 4.736 0.32 8.448-2.432 7.488-7.424 7.296-10.176 5.76-1.792-0.896-23.872-17.536-44.224 7.296-1.408 1.728-3.904 2.304-6.272 0.256a8.064 8.064 0 0 1-1.92-8.96" fill="#000000" p-id="4059"></path><path d="M531.84 595.712h-0.832c-56.32 0.64-124.672-6.656-190.848-19.456a514.88 514.88 0 0 0-6.144 120.768c7.424 121.856 81.216 198.4 195.2 199.552h4.608c113.92-1.152 187.712-77.696 195.2-199.552a514.816 514.816 0 0 0-6.208-120.768c-66.176 12.8-134.528 20.16-190.912 19.456" fill="#FFFFFF" p-id="4060"></path><path d="M371.328 589.12v121.856s57.6 11.264 115.328 3.456V601.984a1093.312 1093.312 0 0 1-115.328-12.864" fill="#EB1C26" p-id="4061"></path><path d="M783.488 460.992s-108.16 35.84-251.52 36.8h-0.896c-143.232-1.024-251.264-36.672-251.584-36.8L243.2 555.84c90.56 28.608 202.88 47.104 287.808 46.016h0.832c84.928 1.088 197.184-17.408 287.808-46.08l-36.224-94.784z" fill="#EB1C26" p-id="4062"></path></svg>