<?xml version="1.0" standalone="no"?><!DOCTYPE svg PUBLIC "-//W3C//DTD SVG 1.1//EN" "http://www.w3.org/Graphics/SVG/1.1/DTD/svg11.dtd"><svg t="1701681756675" class="icon" viewBox="0 0 1024 1024" version="1.1" xmlns="http://www.w3.org/2000/svg" p-id="16089" xmlns:xlink="http://www.w3.org/1999/xlink" width="200" height="200"><path d="M842.9 211.6c39.5 0 71.6 32.1 71.6 71.6v459.1c0.1 39.3-31.9 71.2-71.1 71.2H183.7c-39.3 0-71.2-31.9-71.2-71.2V283.2c0-39.5 32.1-71.6 71.6-71.6h658.8z" fill="#FFA820" p-id="16090"></path><path d="M914.5 283.2c0-39.5-32.1-71.6-71.6-71.6h-34.4c59 65.7 97.6 150.1 105.9 243.2V283.2zM112.5 283.2V317c17.8-38.6 41.2-74.1 69.3-105.4-38.5 1.3-69.3 32.8-69.3 71.6zM112.5 668.5v73.8c0 39.3 31.9 71.2 71.2 71.2h38.7c-46.4-39.6-84.2-89-109.9-145zM914.5 742.3V530.7c-10.1 113-64.9 213.2-146.6 282.8h75.5c39.2 0 71.2-31.9 71.1-71.2z" fill="#FEB133" p-id="16091"></path><path d="M914.5 530.7v-75.9c-8.3-93.1-47-177.5-105.9-243.2h-80.1c68.6 66 111.2 158.7 111.2 261.4 0 156.3-98.9 289.5-237.5 340.5H768c81.6-69.6 136.4-169.7 146.5-282.8zM114.2 473c0-102.7 42.7-195.4 111.2-261.4H184c-0.8 0-1.6 0-2.3 0.1-28.1 31.3-51.5 66.7-69.3 105.4v351.4c25.8 56.1 63.5 105.5 110 145h129.3c-138.6-51-237.5-184.2-237.5-340.5z" fill="#FEB533" p-id="16092"></path><path d="M839.6 473c0-102.7-42.7-195.4-111.2-261.4h-84.8c72.5 55.6 119.3 143.1 119.3 241.6 0 168.1-136.2 304.3-304.3 304.3S154.3 621.2 154.3 453.2c0-98.4 46.8-186 119.3-241.6h-48.1c-68.6 66-111.2 158.7-111.2 261.4 0 156.3 98.9 289.5 237.5 340.5h250.4c138.6-51 237.4-184.2 237.4-340.5z" fill="#FEBA33" p-id="16093"></path><path d="M154.3 453.2c0 168.1 136.2 304.3 304.3 304.3s304.3-136.2 304.3-304.3c0-98.4-46.8-186-119.3-241.6h-96.8c82.5 39.7 139.5 124.1 139.5 221.8 0 135.8-110.1 246-246 246s-246-110.1-246-246c0-97.7 57-182.1 139.5-221.8h-60.2c-72.5 55.6-119.3 143.1-119.3 241.6z" fill="#FFBE34" p-id="16094"></path><path d="M194.3 433.4c0 135.8 110.1 246 246 246s246-110.1 246-246c0-97.7-57-182.1-139.5-221.8h-213c-82.5 39.7-139.5 124.1-139.5 221.8zM422.1 226c103.6 0 187.6 84 187.6 187.6s-84 187.6-187.6 187.6-187.6-84-187.6-187.6S318.5 226 422.1 226z" fill="#FFC234" p-id="16095"></path><path d="M422.1 601.2c103.6 0 187.6-84 187.6-187.6S525.7 226 422.1 226s-187.6 84-187.6 187.6 84 187.6 187.6 187.6z m-18.3-336.6c71.4 0 129.2 57.9 129.2 129.2S475.1 523 403.8 523s-129.2-57.9-129.2-129.2 57.8-129.2 129.2-129.2z" fill="#FFC734" p-id="16096"></path><path d="M312.43057 485.15682a129.2 129.2 0 1 0 182.713203-182.719581 129.2 129.2 0 1 0-182.713203 182.719581Z" fill="#FFCB34" p-id="16097"></path><path d="M843.4 822.5H183.7c-44.2 0-80.2-36-80.2-80.2V283.2c0-44.4 36.2-80.6 80.6-80.6h658.8c44.4 0 80.6 36.2 80.6 80.6v459.1c0.1 21.4-8.2 41.5-23.4 56.6-15.1 15.2-35.3 23.6-56.7 23.6zM184.1 220.6c-34.5 0-62.6 28.1-62.6 62.6v459.1c0 34.3 27.9 62.2 62.2 62.2h659.7c16.6 0 32.2-6.5 44-18.3 11.7-11.7 18.1-27.3 18.1-43.9V283.2c0-34.5-28.1-62.6-62.6-62.6H184.1z" fill="#FFA820" p-id="16098"></path><path d="M474.7 499.7L192.8 293.9c-12.1-8.8-6.3-29.3 8.2-29.3h624.9c14.6 0 20.3 20.5 8.2 29.3L552.3 499.7c-23.5 17.1-54.1 17.1-77.6 0z" fill="#FFE3B4" p-id="16099"></path><path d="M161.3 359.2v124.1c0 9.9 8.1 18 18 18s18-8.1 18-18V359.2c0-9.9-8.1-18-18-18s-18 8.1-18 18zM161.3 543.3v10.5c0 9.9 8.1 18 18 18s18-8.1 18-18v-10.5c0-9.9-8.1-18-18-18s-18 8-18 18z" fill="#FFFFFF" p-id="16100"></path></svg>